<svg width="80" height="80" viewBox="0 0 80 80" fill="none" xmlns="http://www.w3.org/2000/svg">
<path d="M30 32.5C30 31.837 30.2634 31.2011 30.7322 30.7322C31.2011 30.2634 31.837 30 32.5 30H52.5C53.163 30 53.7989 30.2634 54.2678 30.7322C54.7366 31.2011 55 31.837 55 32.5C55 33.163 54.7366 33.7989 54.2678 34.2678C53.7989 34.7366 53.163 35 52.5 35H32.5C31.837 35 31.2011 34.7366 30.7322 34.2678C30.2634 33.7989 30 33.163 30 32.5ZM32.5 45H52.5C53.163 45 53.7989 44.7366 54.2678 44.2678C54.7366 43.7989 55 43.163 55 42.5C55 41.837 54.7366 41.2011 54.2678 40.7322C53.7989 40.2634 53.163 40 52.5 40H32.5C31.837 40 31.2011 40.2634 30.7322 40.7322C30.2634 41.2011 30 41.837 30 42.5C30 43.163 30.2634 43.7989 30.7322 44.2678C31.2011 44.7366 31.837 45 32.5 45ZM72.5 60C72.5 62.6522 71.4464 65.1957 69.5711 67.0711C67.6957 68.9464 65.1522 70 62.5 70H27.5C24.8478 70 22.3043 68.9464 20.4289 67.0711C18.5536 65.1957 17.5 62.6522 17.5 60V20C17.5 18.6739 16.9732 17.4021 16.0355 16.4645C15.0979 15.5268 13.8261 15 12.5 15C11.1739 15 9.90215 15.5268 8.96447 16.4645C8.02678 17.4021 7.5 18.6739 7.5 20C7.5 21.7937 9.00937 23.0063 9.025 23.0188C9.43875 23.3372 9.74244 23.7771 9.89345 24.2769C10.0445 24.7766 10.0352 25.3112 9.86703 25.8054C9.69883 26.2997 9.38012 26.7289 8.95561 27.0328C8.5311 27.3367 8.02209 27.5001 7.5 27.5C6.95938 27.5009 6.43343 27.3242 6.00312 26.9969C5.64062 26.7312 2.5 24.2531 2.5 20C2.5 17.3478 3.55357 14.8043 5.42893 12.9289C7.3043 11.0536 9.84784 10 12.5 10H55C57.6522 10 60.1957 11.0536 62.0711 12.9289C63.9464 14.8043 65 17.3478 65 20V52.5H67.5C68.0409 52.5 68.5673 52.6754 69 53C69.375 53.2688 72.5 55.7469 72.5 60ZM30.0813 54.2125C30.2521 53.7083 30.5781 53.2711 31.0125 52.9635C31.447 52.6559 31.9677 52.4936 32.5 52.5H60V20C60 18.6739 59.4732 17.4021 58.5355 16.4645C57.5979 15.5268 56.3261 15 55 15H21.1531C22.0373 16.5178 22.5021 18.2434 22.5 20V60C22.5 61.3261 23.0268 62.5979 23.9645 63.5355C24.9021 64.4732 26.1739 65 27.5 65C28.8261 65 30.0979 64.4732 31.0355 63.5355C31.9732 62.5979 32.5 61.3261 32.5 60C32.5 58.2063 30.9906 56.9937 30.975 56.9812C30.549 56.6765 30.2321 56.2429 30.0712 55.7444C29.9103 55.2459 29.9138 54.7088 30.0813 54.2125ZM67.5 60C67.4687 59.0737 67.1113 58.1883 66.4906 57.5H37.1156C37.3669 58.3095 37.4944 59.1524 37.4938 60C37.4961 61.7558 37.0336 63.4809 36.1531 65H62.5C63.8261 65 65.0979 64.4732 66.0355 63.5355C66.9732 62.5979 67.5 61.3261 67.5 60Z" fill="#5980E1"/>
</svg>
