<svg width="81" height="80" viewBox="0 0 81 80" fill="none" xmlns="http://www.w3.org/2000/svg">
<path d="M73.1667 27.5H68.1667V20C68.1667 18.6739 67.6399 17.4021 66.7022 16.4645C65.7645 15.5268 64.4928 15 63.1667 15H15.6667C14.3406 15 13.0688 15.5268 12.1312 16.4645C11.1935 17.4021 10.6667 18.6739 10.6667 20V27.5H5.66669C5.00365 27.5 4.36776 27.7634 3.89892 28.2322C3.43008 28.7011 3.16669 29.337 3.16669 30C3.16669 30.663 3.43008 31.2989 3.89892 31.7678C4.36776 32.2366 5.00365 32.5 5.66669 32.5H10.6667V40C10.6667 41.3261 11.1935 42.5979 12.1312 43.5355C13.0688 44.4732 14.3406 45 15.6667 45H63.1667C64.4928 45 65.7645 44.4732 66.7022 43.5355C67.6399 42.5979 68.1667 41.3261 68.1667 40V32.5H73.1667V48.125L41.7917 57.0781C40.7508 57.3795 39.8353 58.0096 39.182 58.8741C38.5286 59.7387 38.1725 60.7914 38.1667 61.875V72.5C38.1667 73.163 38.4301 73.7989 38.8989 74.2678C39.3678 74.7366 40.0036 75 40.6667 75C41.3297 75 41.9656 74.7366 42.4345 74.2678C42.9033 73.7989 43.1667 73.163 43.1667 72.5V61.875L74.5417 52.9125C75.581 52.6115 76.4954 51.9829 77.1486 51.1203C77.8018 50.2576 78.1589 49.207 78.1667 48.125V32.5C78.1667 31.1739 77.6399 29.9021 76.7022 28.9645C75.7645 28.0268 74.4928 27.5 73.1667 27.5ZM63.1667 40H15.6667V20H63.1667V40Z" fill="#5980E1"/>
</svg>
