<svg width="81" height="80" viewBox="0 0 81 80" fill="none" xmlns="http://www.w3.org/2000/svg">
<path d="M78.8771 34.9997L57.7958 13.7747C52.1656 8.15576 44.5361 5 36.5817 5C28.6274 5 20.9979 8.15576 15.3677 13.7747L15.3396 13.8029L11.0364 18.2497C10.5907 18.7288 10.3505 19.3635 10.3675 20.0176C10.3844 20.6718 10.6572 21.2932 11.1272 21.7484C11.5972 22.2037 12.227 22.4566 12.8813 22.4527C13.5357 22.4489 14.1624 22.1886 14.6271 21.7279L18.9177 17.2966C20.6439 15.5707 22.6138 14.1073 24.7646 12.9529L39.2958 27.4997L9.2958 57.4997C8.83139 57.964 8.46299 58.5153 8.21164 59.122C7.9603 59.7287 7.83093 60.379 7.83093 61.0357C7.83093 61.6924 7.9603 62.3427 8.21164 62.9494C8.46299 63.5561 8.83139 64.1073 9.2958 64.5716L15.7614 71.0372C16.2257 71.5016 16.777 71.87 17.3837 72.1214C17.9904 72.3727 18.6407 72.5021 19.2974 72.5021C19.9541 72.5021 20.6043 72.3727 21.211 72.1214C21.8177 71.87 22.369 71.5016 22.8333 71.0372L52.8333 41.0372L57.3146 45.5185L62.8333 51.031C63.2976 51.4954 63.8489 51.8638 64.4556 52.1151C65.0623 52.3665 65.7125 52.4959 66.3692 52.4958C67.0259 52.4959 67.6762 52.3665 68.2829 52.1151C68.8896 51.8638 69.4409 51.4954 69.9052 51.031L78.8708 42.0654C79.8077 41.1287 80.3345 39.8586 80.3357 38.5338C80.3368 37.2091 79.8122 35.938 78.8771 34.9997ZM19.2958 67.4997L12.8333 61.0341L34.0833 39.7841L40.5458 46.2497L19.2958 67.4997ZM51.0646 35.7247L44.0833 42.7091L37.6177 36.2497L44.6021 29.2654C44.8345 29.0332 45.0189 28.7575 45.1447 28.454C45.2705 28.1505 45.3353 27.8251 45.3353 27.4966C45.3353 27.1681 45.2705 26.8428 45.1447 26.5393C45.0189 26.2358 44.8345 25.96 44.6021 25.7279L29.8083 10.9372C34.0825 9.73347 38.6001 9.68984 42.8967 10.8108C47.1934 11.9318 51.1139 14.1769 54.2552 17.3154L68.0739 31.2247L59.0833 40.206L54.6021 35.7247C54.3699 35.4923 54.0941 35.3079 53.7907 35.1821C53.4872 35.0563 53.1618 34.9915 52.8333 34.9915C52.5048 34.9915 52.1794 35.0563 51.876 35.1821C51.5725 35.3079 51.2967 35.4923 51.0646 35.7247ZM66.3771 47.4935L62.6271 43.7435L71.5833 34.7654L75.3333 38.5154L66.3771 47.4935Z" fill="#5980E1"/>
</svg>
