<svg width="81" height="80" viewBox="0 0 81 80" fill="none" xmlns="http://www.w3.org/2000/svg">
<path d="M30.3334 32.5C30.3334 31.837 30.5968 31.2011 31.0656 30.7322C31.5344 30.2634 32.1703 30 32.8334 30H52.8334C53.4964 30 54.1323 30.2634 54.6011 30.7322C55.07 31.2011 55.3334 31.837 55.3334 32.5C55.3334 33.163 55.07 33.7989 54.6011 34.2678C54.1323 34.7366 53.4964 35 52.8334 35H32.8334C32.1703 35 31.5344 34.7366 31.0656 34.2678C30.5968 33.7989 30.3334 33.163 30.3334 32.5ZM32.8334 45H52.8334C53.4964 45 54.1323 44.7366 54.6011 44.2678C55.07 43.7989 55.3334 43.163 55.3334 42.5C55.3334 41.837 55.07 41.2011 54.6011 40.7322C54.1323 40.2634 53.4964 40 52.8334 40H32.8334C32.1703 40 31.5344 40.2634 31.0656 40.7322C30.5968 41.2011 30.3334 41.837 30.3334 42.5C30.3334 43.163 30.5968 43.7989 31.0656 44.2678C31.5344 44.7366 32.1703 45 32.8334 45ZM72.8334 60C72.8334 62.6522 71.7798 65.1957 69.9044 67.0711C68.0291 68.9464 65.4855 70 62.8334 70H27.8334C25.1812 70 22.6377 68.9464 20.7623 67.0711C18.8869 65.1957 17.8334 62.6522 17.8334 60V20C17.8334 18.6739 17.3066 17.4021 16.3689 16.4645C15.4312 15.5268 14.1595 15 12.8334 15C11.5073 15 10.2355 15.5268 9.29784 16.4645C8.36016 17.4021 7.83337 18.6739 7.83337 20C7.83337 21.7937 9.34275 23.0063 9.35837 23.0188C9.77213 23.3372 10.0758 23.7771 10.2268 24.2769C10.3778 24.7766 10.3686 25.3112 10.2004 25.8054C10.0322 26.2997 9.71349 26.7289 9.28898 27.0328C8.86447 27.3367 8.35546 27.5001 7.83337 27.5C7.29275 27.5009 6.7668 27.3242 6.3365 26.9969C5.974 26.7312 2.83337 24.2531 2.83337 20C2.83337 17.3478 3.88694 14.8043 5.76231 12.9289C7.63767 11.0536 10.1812 10 12.8334 10H55.3334C57.9855 10 60.5291 11.0536 62.4044 12.9289C64.2798 14.8043 65.3334 17.3478 65.3334 20V52.5H67.8334C68.3743 52.5 68.9006 52.6754 69.3334 53C69.7084 53.2688 72.8334 55.7469 72.8334 60ZM30.4146 54.2125C30.5854 53.7083 30.9114 53.2711 31.3459 52.9635C31.7804 52.6559 32.3011 52.4936 32.8334 52.5H60.3334V20C60.3334 18.6739 59.8066 17.4021 58.8689 16.4645C57.9312 15.5268 56.6595 15 55.3334 15H21.4865C22.3707 16.5178 22.8355 18.2434 22.8334 20V60C22.8334 61.3261 23.3602 62.5979 24.2978 63.5355C25.2355 64.4732 26.5073 65 27.8334 65C29.1595 65 30.4312 64.4732 31.3689 63.5355C32.3066 62.5979 32.8334 61.3261 32.8334 60C32.8334 58.2062 31.324 56.9937 31.3084 56.9812C30.8823 56.6765 30.5655 56.2429 30.4046 55.7444C30.2436 55.2459 30.2472 54.7088 30.4146 54.2125ZM67.8334 60C67.8021 59.0737 67.4446 58.1883 66.824 57.5H37.449C37.7003 58.3095 37.8278 59.1524 37.8271 60C37.8295 61.7558 37.367 63.4809 36.4865 65H62.8334C64.1595 65 65.4312 64.4732 66.3689 63.5355C67.3066 62.5979 67.8334 61.3261 67.8334 60Z" fill="#5980E1"/>
</svg>
