<svg width="80" height="80" viewBox="0 0 80 80" fill="none" xmlns="http://www.w3.org/2000/svg">
<path d="M77.3844 12.4656C77.3486 11.854 77.0896 11.2768 76.6564 10.8436C76.2232 10.4103 75.646 10.1513 75.0344 10.1156C58.8594 9.17807 45.8719 14.0968 40.2906 23.3093C36.6031 29.3999 36.6094 36.7968 40.2406 43.8531C38.1737 46.3136 36.6632 49.1918 35.8125 52.2906L30.7281 47.1874C33.1719 42.0843 33.0781 36.7656 30.4156 32.3468C26.2906 25.5374 16.7687 21.8874 4.94687 22.5812C4.33526 22.6169 3.75806 22.876 3.32485 23.3092C2.89164 23.7424 2.63258 24.3196 2.59687 24.9312C1.89999 36.7531 5.55312 46.2749 12.3625 50.3999C14.6096 51.7728 17.1917 52.4995 19.825 52.4999C22.3809 52.4685 24.8971 51.8629 27.1875 50.7281L35 58.5406V67.4999C35 68.163 35.2634 68.7989 35.7322 69.2677C36.2011 69.7366 36.8369 69.9999 37.5 69.9999C38.163 69.9999 38.7989 69.7366 39.2678 69.2677C39.7366 68.7989 40 68.163 40 67.4999V58.2843C39.9889 54.3071 41.3423 50.4465 43.8344 47.3468C47.0498 49.0272 50.6159 49.9265 54.2437 49.9718C57.7512 49.9831 61.1935 49.025 64.1906 47.2031C73.4031 41.6281 78.3344 28.6406 77.3844 12.4656ZM14.9406 46.1249C10.1469 43.2218 7.43437 36.3499 7.49999 27.4999C16.35 27.4249 23.2219 30.1468 26.125 34.9406C27.6406 37.4406 27.8875 40.3562 26.8937 43.3593L19.2656 35.7312C18.793 35.2821 18.1636 35.0355 17.5117 35.0438C16.8598 35.0522 16.2369 35.3149 15.7759 35.7759C15.3149 36.2369 15.0522 36.8597 15.0439 37.5116C15.0355 38.1635 15.2822 38.7929 15.7312 39.2656L23.3594 46.8937C20.3562 47.8874 17.4437 47.6406 14.9406 46.1249ZM61.6 42.9312C57.4125 45.4656 52.4906 45.6593 47.4906 43.5562L64.2687 26.7749C64.7178 26.3023 64.9644 25.6729 64.9561 25.021C64.9477 24.3691 64.6851 23.7463 64.2241 23.2852C63.7631 22.8242 63.1402 22.5616 62.4883 22.5532C61.8364 22.5449 61.207 22.7915 60.7344 23.2406L43.9531 39.9999C41.8406 34.9999 42.0312 30.0749 44.5781 25.8906C48.9344 18.7031 59.2656 14.6968 72.4937 15.0062C72.7937 28.2312 68.7937 38.5749 61.6 42.9312Z" fill="#5980E1"/>
</svg>
