<svg width="81" height="80" viewBox="0 0 81 80" fill="none" xmlns="http://www.w3.org/2000/svg">
<path d="M25.3333 56.25C25.3333 56.9917 25.1134 57.7167 24.7014 58.3334C24.2893 58.9501 23.7036 59.4307 23.0184 59.7146C22.3332 59.9984 21.5792 60.0726 20.8518 59.9279C20.1243 59.7833 19.4561 59.4261 18.9317 58.9017C18.4072 58.3772 18.0501 57.709 17.9054 56.9816C17.7607 56.2542 17.835 55.5002 18.1188 54.8149C18.4026 54.1297 18.8833 53.544 19.5 53.132C20.1166 52.7199 20.8417 52.5 21.5833 52.5C22.5779 52.5 23.5317 52.8951 24.235 53.5984C24.9383 54.3016 25.3333 55.2554 25.3333 56.25ZM72.8333 48.8094V65C72.8333 66.3261 72.3066 67.5979 71.3689 68.5355C70.4312 69.4732 69.1594 70 67.8333 70H21.5833C20.7517 70.0005 19.9215 69.9294 19.1021 69.7875C15.5272 69.1353 12.3558 67.0944 10.2812 64.1109C8.20648 61.1274 7.39721 57.444 8.03022 53.8656L15.8427 9.13751C15.9538 8.4912 16.1913 7.87318 16.5418 7.31891C16.8923 6.76464 17.3487 6.28502 17.885 5.90758C18.4212 5.53013 19.0268 5.26229 19.6668 5.11942C20.3068 4.97654 20.9687 4.96145 21.6146 5.07501L38.7208 8.12501C40.0224 8.35957 41.1781 9.10028 41.9348 10.185C42.6915 11.2697 42.9876 12.61 42.7583 13.9125L38.9833 35.475L60.174 27.8125C61.4161 27.3638 62.7854 27.4249 63.9827 27.9823C65.1801 28.5396 66.1082 29.5481 66.5646 30.7875L72.5208 47.0906C72.7122 47.6442 72.8176 48.2239 72.8333 48.8094ZM30.0208 57.7719L37.8333 13.0438L20.7896 10L12.9771 54.7188C12.5692 56.9933 13.0777 59.3369 14.3915 61.2379C15.7053 63.1389 17.7177 64.443 19.9896 64.8656C21.1017 65.0651 22.2424 65.0415 23.3454 64.7964C24.4484 64.5512 25.4917 64.0893 26.4146 63.4375C27.3611 62.7792 28.1674 61.9393 28.7865 60.9667C29.4055 59.9941 29.8251 58.9081 30.0208 57.7719ZM34.3271 60.9375L67.8333 48.7844L61.8708 32.5L37.9896 41.1563L34.9333 58.6313C34.7975 59.4159 34.5946 60.1875 34.3271 60.9375ZM67.8333 54.1L37.7521 65H67.8333V54.1Z" fill="#5980E1"/>
</svg>
