<svg width="81" height="80" viewBox="0 0 81 80" fill="none" xmlns="http://www.w3.org/2000/svg">
<path d="M65.3729 25.2094C62.1323 21.9614 58.2808 19.3871 54.0404 17.6349C49.8001 15.8826 45.2548 14.9871 40.6667 15H40.5417C21.3136 15.0656 5.66669 30.9375 5.66669 50.3531V57.5C5.66669 58.8261 6.19347 60.0979 7.13115 61.0355C8.06883 61.9732 9.3406 62.5 10.6667 62.5H70.6667C71.9928 62.5 73.2645 61.9732 74.2022 61.0355C75.1399 60.0979 75.6667 58.8261 75.6667 57.5V50C75.6795 45.3918 74.7761 40.8271 73.0089 36.5712C71.2418 32.3153 68.6461 28.4531 65.3729 25.2094ZM70.6667 57.5H38.0761L55.1886 33.9688C55.5789 33.4325 55.7403 32.7632 55.6371 32.108C55.534 31.4528 55.1748 30.8654 54.6386 30.475C54.1023 30.0846 53.433 29.9233 52.7778 30.0264C52.1226 30.1296 51.5352 30.4888 51.1448 31.025L31.8917 57.5H10.6667V50.3531C10.6667 49.3906 10.7136 48.4406 10.8011 47.5H18.1667C18.8297 47.5 19.4656 47.2366 19.9345 46.7678C20.4033 46.2989 20.6667 45.6631 20.6667 45C20.6667 44.337 20.4033 43.7011 19.9345 43.2322C19.4656 42.7634 18.8297 42.5 18.1667 42.5H11.6886C14.9136 30.3563 25.4386 21.175 38.1667 20.1063V27.5C38.1667 28.1631 38.4301 28.7989 38.8989 29.2678C39.3678 29.7366 40.0036 30 40.6667 30C41.3297 30 41.9656 29.7366 42.4345 29.2678C42.9033 28.7989 43.1667 28.1631 43.1667 27.5V20.1031C49.3687 20.6251 55.2556 23.0603 60.0139 27.0724C64.7722 31.0845 68.167 36.4753 69.7292 42.5H63.1667C62.5037 42.5 61.8678 42.7634 61.3989 43.2322C60.9301 43.7011 60.6667 44.337 60.6667 45C60.6667 45.6631 60.9301 46.2989 61.3989 46.7678C61.8678 47.2366 62.5037 47.5 63.1667 47.5H70.5636C70.6292 48.3281 70.6667 49.1594 70.6667 50V57.5Z" fill="#5980E1"/>
</svg>
