<svg width="81" height="80" viewBox="0 0 81 80" fill="none" xmlns="http://www.w3.org/2000/svg">
<path d="M73.101 58.5406C74.8642 54.9565 75.7429 51.0022 75.6636 47.0087C75.5843 43.0153 74.5493 39.0989 72.6453 35.5877C70.7413 32.0765 68.0236 29.0726 64.72 26.8276C61.4164 24.5826 57.6229 23.1618 53.6573 22.6843C52.3421 19.6185 50.4266 16.8468 48.0237 14.5327C45.6207 12.2186 42.7789 10.4089 39.6657 9.21007C36.5525 8.01127 33.2309 7.44768 29.8965 7.55251C26.5621 7.65734 23.2824 8.42846 20.2506 9.82045C17.2188 11.2124 14.4963 13.1971 12.2435 15.6576C9.99067 18.1181 8.25306 21.0046 7.13306 24.147C6.01306 27.2894 5.53332 30.6242 5.7221 33.9549C5.91089 37.2856 6.76438 40.5448 8.2323 43.5406L5.83855 51.9218C5.62494 52.6716 5.61559 53.4649 5.81144 54.2195C6.0073 54.9742 6.40126 55.6628 6.95255 56.2141C7.50384 56.7654 8.19244 57.1593 8.94708 57.3552C9.70172 57.551 10.495 57.5417 11.2448 57.3281L19.626 54.9343C22.1551 56.176 24.8756 56.9822 27.6729 57.3187C29.0063 60.4427 30.9624 63.2623 33.4217 65.6053C35.881 67.9482 38.792 69.7655 41.977 70.946C45.1619 72.1266 48.554 72.6458 51.9463 72.4718C55.3386 72.2979 58.6598 71.4345 61.7073 69.9343L70.0885 72.3281C70.8384 72.5417 71.6316 72.551 72.3863 72.3552C73.1409 72.1593 73.8295 71.7654 74.3808 71.2141C74.9321 70.6628 75.326 69.9742 75.5219 69.2195C75.7178 68.4649 75.7084 67.6716 75.4948 66.9218L73.101 58.5406ZM19.8948 49.7593C19.6624 49.7593 19.4312 49.7909 19.2073 49.8531L10.9542 52.2125L13.3135 43.9593C13.4904 43.3306 13.4141 42.6576 13.101 42.0843C10.8023 37.8641 10.1014 32.9569 11.1265 28.2619C12.1517 23.5668 14.8344 19.3985 18.683 16.5206C22.5316 13.6426 27.2884 12.2479 32.0817 12.592C36.8751 12.9361 41.3839 14.9959 44.782 18.394C48.1801 21.7921 50.2399 26.3009 50.584 31.0943C50.928 35.8876 49.5333 40.6443 46.6554 44.493C43.7775 48.3416 39.6091 51.0243 34.9141 52.0495C30.2191 53.0746 25.3119 52.3737 21.0917 50.075C20.7258 49.8703 20.314 49.7617 19.8948 49.7593ZM68.0198 58.9593L70.3792 67.2125L62.126 64.8531C61.4973 64.6763 60.8243 64.7525 60.251 65.0656C55.6426 67.5728 50.2341 68.1707 45.1893 66.7306C40.1445 65.2906 35.8666 61.9277 33.276 57.3656C36.6993 57.0091 40.012 55.9489 43.0062 54.2516C46.0004 52.5544 48.6116 50.2566 50.6758 47.5026C52.74 44.7485 54.2128 41.5975 55.0018 38.2473C55.7907 34.8972 55.8788 31.4201 55.2604 28.0343C58.2561 28.7403 61.0484 30.1282 63.42 32.0898C65.7916 34.0515 67.6785 36.534 68.9337 39.3442C70.189 42.1543 70.7787 45.2163 70.657 48.2916C70.5354 51.367 69.7056 54.3727 68.2323 57.0749C67.9167 57.6508 67.8404 58.3277 68.0198 58.9593Z" fill="#5980E1"/>
</svg>
