<svg width="32" height="32" viewBox="0 0 32 32" fill="none" xmlns="http://www.w3.org/2000/svg">
<path d="M28 19V12C28 11.7348 27.8946 11.4804 27.7071 11.2929C27.5196 11.1054 27.2652 11 27 11H21V5C21 4.73478 20.8946 4.48043 20.7071 4.29289C20.5196 4.10536 20.2652 4 20 4H5C4.73478 4 4.48043 4.10536 4.29289 4.29289C4.10536 4.48043 4 4.73478 4 5V13V20C4 20.2652 4.10536 20.5196 4.29289 20.7071C4.48043 20.8946 4.73478 21 5 21H11V27C11 27.2652 11.1054 27.5196 11.2929 27.7071C11.4804 27.8946 11.7348 28 12 28H27C27.2652 28 27.5196 27.8946 27.7071 27.7071C27.8946 27.5196 28 27.2652 28 27V19ZM19.4137 26L6 12.5863V7.41375L24.5863 26H19.4137ZM7.41375 6H12.5863L26 19.4137V24.5863L7.41375 6ZM26 16.5863L22.4137 13H26V16.5863ZM19 9.58625L15.4137 6H19V9.58625ZM6 15.4137L9.58625 19H6V15.4137ZM13 22.4137L16.5863 26H13V22.4137Z" fill="#333333"/>
</svg>
