<svg width="32" height="33" viewBox="0 0 32 33" fill="none" xmlns="http://www.w3.org/2000/svg">
<path d="M28.555 11.6681L16.555 3.66815C16.3907 3.55851 16.1975 3.5 16 3.5C15.8025 3.5 15.6093 3.55851 15.445 3.66815L3.445 11.6681C3.30801 11.7595 3.19572 11.8834 3.11809 12.0286C3.04046 12.1738 2.99989 12.336 3 12.5006V25.5007C3 26.0311 3.21071 26.5398 3.58579 26.9149C3.96086 27.2899 4.46957 27.5007 5 27.5007H27C27.5304 27.5007 28.0391 27.2899 28.4142 26.9149C28.7893 26.5398 29 26.0311 29 25.5007V12.5006C29.0001 12.336 28.9595 12.1738 28.8819 12.0286C28.8043 11.8834 28.692 11.7595 28.555 11.6681ZM12.09 19.5007L5 24.5007V14.4419L12.09 19.5007ZM14.1362 20.5007H17.8638L24.9425 25.5007H7.0575L14.1362 20.5007ZM19.91 19.5007L27 14.4419V24.5007L19.91 19.5007ZM16 5.7019L26.2388 12.5281L17.8638 18.5006H14.1388L5.76375 12.5281L16 5.7019Z" fill="#333333"/>
</svg>
