<svg width="32" height="33" viewBox="0 0 32 33" fill="none" xmlns="http://www.w3.org/2000/svg">
<path d="M16 8.16602C15.0111 8.16602 14.0444 8.45926 13.2221 9.00867C12.3999 9.55807 11.759 10.339 11.3806 11.2526C11.0022 12.1662 10.9031 13.1716 11.0961 14.1415C11.289 15.1114 11.7652 16.0023 12.4645 16.7015C13.1637 17.4008 14.0546 17.877 15.0245 18.0699C15.9945 18.2629 16.9998 18.1639 17.9134 17.7854C18.827 17.407 19.6079 16.7661 20.1573 15.9439C20.7068 15.1216 21 14.1549 21 13.166C21 11.8399 20.4732 10.5682 19.5355 9.63048C18.5979 8.6928 17.3261 8.16602 16 8.16602ZM16 16.166C15.4067 16.166 14.8266 15.9901 14.3333 15.6604C13.8399 15.3308 13.4554 14.8622 13.2284 14.3141C13.0013 13.7659 12.9419 13.1627 13.0576 12.5807C13.1734 11.9988 13.4591 11.4643 13.8787 11.0447C14.2982 10.6251 14.8328 10.3394 15.4147 10.2237C15.9967 10.1079 16.5999 10.1673 17.1481 10.3944C17.6962 10.6214 18.1648 11.006 18.4944 11.4993C18.8241 11.9927 19 12.5727 19 13.166C19 13.9617 18.6839 14.7247 18.1213 15.2873C17.5587 15.8499 16.7956 16.166 16 16.166ZM16 2.16602C13.0836 2.16932 10.2877 3.32931 8.22548 5.3915C6.1633 7.45368 5.00331 10.2497 5 13.166C5 17.091 6.81375 21.251 10.25 25.1973C11.794 26.9805 13.5318 28.5862 15.4312 29.9848C15.5994 30.1026 15.7997 30.1657 16.005 30.1657C16.2103 30.1657 16.4106 30.1026 16.5788 29.9848C18.4747 28.5856 20.2091 26.9799 21.75 25.1973C25.1812 21.251 27 17.091 27 13.166C26.9967 10.2497 25.8367 7.45368 23.7745 5.3915C21.7123 3.32931 18.9164 2.16932 16 2.16602ZM16 27.916C13.9338 26.291 7 20.3223 7 13.166C7 10.7791 7.94821 8.48988 9.63604 6.80205C11.3239 5.11423 13.6131 4.16602 16 4.16602C18.3869 4.16602 20.6761 5.11423 22.364 6.80205C24.0518 8.48988 25 10.7791 25 13.166C25 20.3198 18.0662 26.291 16 27.916Z" fill="#333333"/>
</svg>
