<svg width="32" height="33" viewBox="0 0 32 33" fill="none" xmlns="http://www.w3.org/2000/svg">
<path d="M19.0337 5.57303C19.0677 5.44612 19.1263 5.32714 19.2063 5.22289C19.2862 5.11864 19.3859 5.03117 19.4997 4.96547C19.6134 4.89976 19.739 4.85712 19.8693 4.83997C19.9995 4.82282 20.1319 4.83151 20.2587 4.86553C22.1126 5.34921 23.804 6.31833 25.1587 7.67307C26.5134 9.02781 27.4826 10.7192 27.9662 12.573C28.0003 12.6999 28.0089 12.8323 27.9918 12.9625C27.9747 13.0928 27.932 13.2184 27.8663 13.3321C27.8006 13.4459 27.7131 13.5456 27.6089 13.6255C27.5046 13.7055 27.3857 13.7641 27.2587 13.798C27.1743 13.8202 27.0873 13.8316 27 13.8318C26.7796 13.8318 26.5654 13.759 26.3907 13.6247C26.216 13.4904 26.0905 13.3022 26.0337 13.0893C25.6393 11.5759 24.8483 10.1952 23.7425 9.08931C22.6366 7.98345 21.2558 7.19251 19.7425 6.79803C19.6155 6.76422 19.4964 6.7057 19.392 6.62581C19.2876 6.54593 19.2 6.44624 19.1342 6.33247C19.0683 6.21869 19.0256 6.09306 19.0083 5.96274C18.9911 5.83243 18.9997 5.7 19.0337 5.57303ZM18.7425 10.798C20.4662 11.258 21.5737 12.3655 22.0337 14.0893C22.0905 14.3022 22.216 14.4904 22.3907 14.6247C22.5654 14.759 22.7796 14.8318 23 14.8318C23.0873 14.8316 23.1743 14.8202 23.2587 14.798C23.3857 14.7641 23.5046 14.7055 23.6089 14.6255C23.7131 14.5456 23.8006 14.4459 23.8663 14.3321C23.932 14.2184 23.9747 14.0928 23.9918 13.9625C24.0089 13.8323 24.0003 13.6999 23.9662 13.573C23.3262 11.178 21.6537 9.50553 19.2587 8.86553C19.1319 8.83163 18.9995 8.82306 18.8693 8.8403C18.7391 8.85754 18.6136 8.90026 18.4999 8.96601C18.3862 9.03177 18.2866 9.11928 18.2067 9.22353C18.1268 9.32779 18.0683 9.44676 18.0344 9.57365C18.0005 9.70054 17.9919 9.83287 18.0091 9.96307C18.0264 10.0933 18.0691 10.2188 18.1349 10.3325C18.2006 10.4462 18.2881 10.5458 18.3924 10.6257C18.4966 10.7056 18.6156 10.7641 18.7425 10.798ZM28.985 22.7168C28.7621 24.4106 27.9303 25.9653 26.6449 27.0906C25.3595 28.2159 23.7084 28.8348 22 28.8318C12.075 28.8318 4 20.7568 4 10.8318C3.99693 9.12339 4.61585 7.47231 5.74116 6.1869C6.86647 4.90149 8.42121 4.06966 10.115 3.84678C10.5433 3.79448 10.9771 3.88211 11.3515 4.09658C11.7259 4.31105 12.0209 4.64086 12.1925 5.03678L14.8325 10.9305V10.9455C14.9639 11.2486 15.0181 11.5795 14.9904 11.9086C14.9627 12.2378 14.8539 12.5549 14.6737 12.8318C14.6512 12.8655 14.6275 12.8968 14.6025 12.928L12 16.013C12.9362 17.9155 14.9262 19.888 16.8537 20.8268L19.8962 18.238C19.9261 18.2129 19.9574 18.1895 19.99 18.168C20.2666 17.9835 20.5849 17.8709 20.916 17.8404C21.247 17.8098 21.5805 17.8623 21.8862 17.993L21.9025 18.0005L27.7912 20.6393C28.1879 20.8102 28.5185 21.105 28.7337 21.4795C28.9488 21.854 29.037 22.288 28.985 22.7168ZM27 22.4668C27 22.4668 26.9912 22.4668 26.9862 22.4668L21.1112 19.8355L18.0675 22.4243C18.038 22.4493 18.0071 22.4727 17.975 22.4943C17.6872 22.6863 17.3545 22.8004 17.0094 22.8253C16.6644 22.8503 16.3187 22.7853 16.0062 22.6368C13.665 21.5055 11.3312 19.1893 10.1987 16.873C10.0488 16.5628 9.98149 16.2192 10.0034 15.8754C10.0253 15.5315 10.1356 15.1992 10.3237 14.9105C10.3449 14.8766 10.3688 14.8445 10.395 14.8143L13 11.7255L10.375 5.85053C10.3745 5.84554 10.3745 5.84052 10.375 5.83553C9.16281 5.99365 8.04984 6.58823 7.24451 7.50792C6.43918 8.42761 5.99672 9.60933 6 10.8318C6.00463 15.0738 7.69182 19.1408 10.6914 22.1404C13.691 25.1399 17.758 26.8271 22 26.8318C23.2217 26.836 24.4031 26.3951 25.3233 25.5915C26.2435 24.7879 26.8396 23.6767 27 22.4655V22.4668Z" fill="#333333"/>
</svg>
