<svg width="209" height="51" viewBox="0 0 209 51" fill="none" xmlns="http://www.w3.org/2000/svg">
<path d="M78.1523 42.8218C76.3688 42.8218 74.7255 42.5288 73.2223 41.9428C71.7191 41.3568 70.4197 40.5288 69.2987 39.446C68.1777 38.3632 67.3114 37.102 66.7 35.6753C66.0758 34.2358 65.77 32.6561 65.77 30.9109C65.77 29.1657 66.0758 27.5733 66.7 26.1465C67.3114 24.707 68.1904 23.4586 69.3114 22.3758C70.4325 21.293 71.7446 20.465 73.2478 19.879C74.751 19.293 76.3943 19 78.1777 19C80.0758 19 81.8083 19.3312 83.3752 19.9809C84.9421 20.6306 86.267 21.5987 87.3498 22.8726L84.5727 25.4841C83.7064 24.5796 82.7638 23.9045 81.7319 23.4459C80.7 23 79.579 22.7707 78.3943 22.7707C77.2096 22.7707 76.0758 22.9745 75.0694 23.3695C74.0631 23.7644 73.1968 24.3249 72.458 25.0637C71.7191 25.7898 71.1331 26.6561 70.7255 27.6497C70.3051 28.6434 70.1013 29.7389 70.1013 30.9236C70.1013 32.1084 70.3051 33.2039 70.7255 34.1975C71.1459 35.1912 71.7191 36.0574 72.458 36.7835C73.1968 37.5097 74.0631 38.0702 75.0694 38.4778C76.0758 38.8727 77.1841 39.0765 78.3943 39.0765C79.6045 39.0765 80.7 38.8472 81.7319 38.4014C82.7638 37.9555 83.7192 37.2549 84.5727 36.3377L87.3498 38.9492C86.267 40.2358 84.9421 41.2039 83.3752 41.8664C81.8083 42.5288 80.0631 42.86 78.1395 42.86L78.1523 42.8218Z" fill="#333333"/>
<path d="M101.095 42.8218C97.9358 42.8218 95.4645 41.9301 93.6683 40.1466C91.8721 38.3632 90.9677 35.7644 90.9677 32.3631V19.3185H95.2734V32.223C95.2734 34.6052 95.783 36.3377 96.8148 37.4205C97.8467 38.5033 99.2862 39.0383 101.172 39.0383C103.057 39.0383 104.496 38.5033 105.503 37.4205C106.522 36.3377 107.031 34.6052 107.031 32.223V19.3185H111.273V32.3631C111.273 35.7644 110.369 38.3504 108.573 40.1466C106.777 41.9301 104.28 42.8218 101.108 42.8218H101.095Z" fill="#333333"/>
<path d="M117.286 42.4906V19.3185H128.178C130.942 19.3185 133.044 19.8663 134.496 20.9618C135.949 22.0574 136.688 23.5223 136.688 25.344C136.688 26.5797 136.395 27.637 135.821 28.5032C135.248 29.3695 134.484 30.0447 133.516 30.5287C132.56 31.0001 131.516 31.2421 130.382 31.2421L130.98 30.0447C132.28 30.0447 133.452 30.2867 134.484 30.758C135.516 31.2294 136.344 31.9173 136.93 32.8217C137.528 33.7262 137.821 34.8472 137.821 36.1976C137.821 38.1848 137.07 39.7262 135.554 40.8345C134.038 41.9428 131.796 42.4906 128.815 42.4906H117.261H117.286ZM121.592 39.1148H128.573C130.165 39.1148 131.388 38.8473 132.242 38.325C133.108 37.7899 133.528 36.9492 133.528 35.7772C133.528 34.6052 133.095 33.7899 132.242 33.2421C131.375 32.7071 130.152 32.4268 128.573 32.4268H121.261V29.0892H127.681C129.159 29.0892 130.305 28.8217 131.121 28.2994C131.936 27.7644 132.344 26.9746 132.344 25.9172C132.344 24.8599 131.936 24.0319 131.121 23.4968C130.305 22.9618 129.159 22.707 127.681 22.707H121.592V39.1275V39.1148Z" fill="#333333"/>
<path d="M142.484 42.4906V19.3185H159.401V22.9618H146.79V38.8473H159.86V42.4906H142.484ZM146.446 32.4905V28.9491H157.962V32.4905H146.446Z" fill="#333333"/>
<path d="M161.618 42.4905L171.388 29.0127V32.2866L162.051 19.3057H166.955L173.911 28.8726L171.885 28.9108L178.739 19.3057H183.401L174.165 32.0446V28.9363L183.962 42.4778H179.032L171.745 32.2866H173.694L166.509 42.4778H161.605L161.618 42.4905Z" fill="#333333"/>
<path d="M192.064 42.4905V33.3185L193.057 35.93L182.955 19.3057H187.529L195.669 32.707H193.083L201.198 19.3057H205.44L195.376 35.93L196.331 33.3185V42.4905H192.064Z" fill="#333333"/>
<path d="M52.02 9.77004C50.69 8.64004 48.94 8.17004 47.22 8.46004L20.83 12.95C17.98 13.43 15.91 15.88 15.91 18.77V45.04C15.91 46.78 16.67 48.43 18.01 49.55C19.09 50.46 20.43 50.94 21.82 50.94C22.15 50.94 22.48 50.91 22.81 50.86L30.92 49.61C31.87 49.45 32.5 48.55 32.34 47.61C32.18 46.66 31.28 46.03 30.34 46.19L22.23 47.44C21.52 47.56 20.8 47.36 20.25 46.9C19.7 46.44 19.39 45.76 19.39 45.04V18.77C19.39 17.58 20.24 16.57 21.42 16.37L47.81 11.88C48.52 11.76 49.24 11.96 49.79 12.42C50.34 12.88 50.65 13.56 50.65 14.28V40.55C50.65 41.74 49.8 42.75 48.62 42.95L48.16 43.03V26.2C48.16 25.64 47.65 25.21 47.1 25.3L37.19 27.05C36.75 27.12 36.43 27.5 36.43 27.95V47.58C36.43 48.14 36.94 48.57 37.49 48.48L47.4 46.73C47.5 46.71 47.59 46.68 47.67 46.64L49.2 46.38C52.05 45.9 54.12 43.45 54.12 40.56V14.28C54.12 12.54 53.36 10.89 52.02 9.77004Z" fill="url(#paint0_linear_2002_1189)"/>
<path d="M4.34 38.5201C3.79 38.0501 3.47 37.3701 3.47 36.6501V10.4001C3.47 9.20006 4.33 8.19006 5.5 7.99006L31.88 3.51006C32.02 3.49006 32.15 3.48006 32.29 3.48006C32.86 3.48006 33.42 3.68006 33.86 4.06006C34.41 4.53006 34.73 5.21006 34.73 5.93006V7.08006L38.2 6.49006V5.93006C38.2 4.18006 37.43 2.54006 36.1 1.41006C34.77 0.280059 33.01 -0.189941 31.29 0.100059L4.92 4.57006C2.07 5.06006 0 7.51006 0 10.4001V36.6501C0 38.4001 0.77 40.0401 2.1 41.1701C3.18 42.0801 4.53 42.5701 5.91 42.5701C6.24 42.5701 6.57 42.5401 6.91 42.4901L12.41 41.5601V38.0401L6.33 39.0701C5.62 39.1901 4.9 38.9901 4.34 38.5301V38.5201Z" fill="url(#paint1_linear_2002_1189)"/>
<defs>
<linearGradient id="paint0_linear_2002_1189" x1="59.3305" y1="3.34772" x2="1.06006" y2="43.8031" gradientUnits="userSpaceOnUse">
<stop stop-color="#393BDB"/>
<stop offset="1" stop-color="#00FFC8"/>
</linearGradient>
<linearGradient id="paint1_linear_2002_1189" x1="43.4091" y1="-5.01108" x2="-14.8471" y2="35.4333" gradientUnits="userSpaceOnUse">
<stop stop-color="#393BDB"/>
<stop offset="1" stop-color="#00FFC8"/>
</linearGradient>
</defs>
</svg>
