<svg width="32" height="32" viewBox="0 0 32 32" fill="none" xmlns="http://www.w3.org/2000/svg">
<path d="M29 16C28.9959 19.1772 27.8302 22.2433 25.7224 24.6208C23.6145 26.9982 20.7101 28.5228 17.5563 28.9075C17.486 28.9154 17.4149 28.9084 17.3476 28.8869C17.2803 28.8653 17.2183 28.8297 17.1657 28.7825C17.1132 28.7353 17.0712 28.6774 17.0427 28.6128C17.0141 28.5481 16.9996 28.4781 17 28.4075V19H20C20.1371 19.0003 20.2728 18.9724 20.3986 18.918C20.5245 18.8637 20.6378 18.784 20.7316 18.6841C20.8254 18.5841 20.8976 18.4659 20.9438 18.3368C20.9899 18.2077 21.0091 18.0705 21 17.9337C20.9779 17.6766 20.8593 17.4373 20.668 17.2641C20.4766 17.0909 20.2268 16.9965 19.9688 17H17V14C17 13.4695 17.2107 12.9608 17.5858 12.5858C17.9609 12.2107 18.4696 12 19 12H21C21.1371 12.0003 21.2728 11.9724 21.3986 11.918C21.5245 11.8637 21.6378 11.784 21.7316 11.6841C21.8254 11.5841 21.8976 11.4659 21.9438 11.3368C21.9899 11.2077 22.0091 11.0705 22 10.9337C21.9779 10.6761 21.8589 10.4365 21.667 10.2632C21.4752 10.0899 21.2248 9.99586 20.9663 9.99997H19C17.9391 9.99997 16.9217 10.4214 16.1716 11.1715C15.4214 11.9217 15 12.9391 15 14V17H12C11.8629 16.9997 11.7272 17.0276 11.6014 17.0819C11.4755 17.1362 11.3622 17.2159 11.2684 17.3159C11.1746 17.4159 11.1024 17.5341 11.0562 17.6632C11.0101 17.7922 10.9909 17.9294 11 18.0662C11.0221 18.3238 11.1411 18.5634 11.333 18.7367C11.5248 18.91 11.7753 19.0041 12.0338 19H15V28.41C15.0004 28.4805 14.9859 28.5504 14.9574 28.6149C14.9289 28.6795 14.8871 28.7373 14.8347 28.7845C14.7823 28.8317 14.7204 28.8673 14.6533 28.8889C14.5861 28.9106 14.5151 28.9177 14.445 28.91C11.2067 28.5156 8.23446 26.9198 6.1166 24.4386C3.99873 21.9573 2.88961 18.7713 3.00875 15.5112C3.25875 8.76122 8.72625 3.27372 15.4813 3.01122C17.2301 2.94348 18.9747 3.22916 20.6106 3.85117C22.2465 4.47319 23.7401 5.41877 25.0022 6.63134C26.2642 7.84391 27.2688 9.29857 27.9557 10.9083C28.6426 12.5181 28.9978 14.2498 29 16Z" fill="#5980E1"/>
</svg>
